<svg width="24" height="24" viewBox="0 0 24 24" fill="none" xmlns="http://www.w3.org/2000/svg">
<path d="M16.041 15.856C16.007 15.882 15.974 15.911 15.942 15.943C15.91 15.975 15.882 16.007 15.855 16.042C14.597 17.255 12.886 18 11 18C9.067 18 7.318 17.218 6.05 15.95C4.782 14.682 4 12.933 4 11C4 9.067 4.782 7.318 6.05 6.05C7.318 4.782 9.067 4 11 4C12.933 4 14.682 4.782 15.95 6.05C17.218 7.318 18 9.067 18 11C18 12.886 17.255 14.597 16.041 15.856ZM21.707 20.293L18.032 16.618C19.263 15.078 20 13.125 20 11C20 8.515 18.992 6.264 17.364 4.636C15.736 3.008 13.485 2 11 2C8.515 2 6.264 3.008 4.636 4.636C3.008 6.264 2 8.515 2 11C2 13.485 3.008 15.736 4.636 17.364C6.264 18.992 8.515 20 11 20C13.125 20 15.078 19.263 16.618 18.032L20.293 21.707C20.684 22.098 21.317 22.098 21.707 21.707C22.097 21.316 22.098 20.683 21.707 20.293Z" fill="#EF4983" fill-opacity="0.8"/>
</svg>
