<svg width="32" height="28" viewBox="0 0 32 28" fill="none" xmlns="http://www.w3.org/2000/svg">
<g clip-path="url(#clip0_10_266)">
<path d="M30 12C31.109 12 32 12.891 32 14C32 15.109 31.109 16 30 16H29.766L27.969 26.344C27.797 27.297 26.969 28 26 28H6C5.031 28 4.203 27.297 4.031 26.344L2.234 16H2C0.891 16 0 15.109 0 14C0 12.891 0.891 12 2 12H30ZM7.578 24.5C8.125 24.453 8.547 23.969 8.5 23.422L8 16.922C7.953 16.375 7.469 15.953 6.922 16C6.375 16.047 5.953 16.531 6 17.078L6.5 23.578C6.547 24.094 6.984 24.5 7.5 24.5H7.578ZM14 23.5V17C14 16.453 13.547 16 13 16C12.453 16 12 16.453 12 17V23.5C12 24.047 12.453 24.5 13 24.5C13.547 24.5 14 24.047 14 23.5ZM20 23.5V17C20 16.453 19.547 16 19 16C18.453 16 18 16.453 18 17V23.5C18 24.047 18.453 24.5 19 24.5C19.547 24.5 20 24.047 20 23.5ZM25.5 23.578L26 17.078C26.047 16.531 25.625 16.047 25.078 16C24.531 15.953 24.047 16.375 24 16.922L23.5 23.422C23.453 23.969 23.875 24.453 24.422 24.5H24.5C25.016 24.5 25.453 24.094 25.5 23.578ZM7.438 4.562L5.985 11H3.922L5.5 4.109C5.906 2.281 7.516 1 9.391 1H12C12 0.453 12.453 0 13 0H19C19.547 0 20 0.453 20 1H22.609C24.484 1 26.093 2.281 26.5 4.109L28.078 11H26.015L24.562 4.562C24.343 3.64 23.546 2.999 22.609 2.999H20C20 3.546 19.547 3.999 19 3.999H13C12.453 3.999 12 3.546 12 2.999H9.391C8.453 2.999 7.657 3.64 7.438 4.562Z" fill="white"/>
</g>
<defs>
<clipPath id="clip0_10_266">
<rect width="32" height="28" fill="white"/>
</clipPath>
</defs>
</svg>
